<?xml version="1.0" encoding="UTF-8"?><svg id="a" xmlns="http://www.w3.org/2000/svg" viewBox="0 0 65 65"><path d="M54.2,53.1c-.2,1.9-1.7,3.3-3.7,3.1l-20.3-2.7c-1-.1-1.7-.8-2.2-1.6-1.6,1.4-3.6,1.9-5.7,1.3s-3.3-1.8-4-3.6c-2.4.4-4.8-.5-6.3-2.3s-1.9-4.6-1-7c-2.3-1.1-3.8-3.3-3.9-5.7s1.1-4.9,3.3-6.4c-1.6-3.4,0-7.5,3.7-8.6-.3-1.6.3-3.2,1.4-4.4s2.9-1.6,4.5-1.4c1-1.8,2.9-3,5-3s3.9,1.2,4.9,3.1c1-2,2.8-3.1,4.9-3.2s4,1.3,5,3c2.1-.5,3.6,1,5.2,1.7s3.7,1.1,3.4,3.7c1.5,0,3.7,0,3.8,1.8l3.2.5c1.5.2,2.7,1.7,2.5,3.3l-3.7,28.4Z" fill="#a0a3da"/><path d="M55.1,25.2l-3.6,27.1c0,.6-.6.9-1.2.9l-19.1-2.5c-.4,0-.7-.6-.6-1.1l3.6-27.1c0-.5.5-.8,1-.7l2.6.3c0,.8.5,1.7,1.4,1.8l10.8,1.4c1,.1,1.7-.4,2-1.4l2.6.3c.3,0,.7.4.6.9Z" fill="#f9eed1"/><path d="M22.9,23.2h.1c.3-.1.6-.1.9-.2.2-.4.5-.8.8-1.1h.2c0,.6.6,1.1,1.1,1.4v3.2c-1-.1-2,0-2.7.8s-.9,1.6-.8,2.6h-1.4s-2.1-1.7-2.1-1.7c.2-.8,0-1.7-.9-2s-1.6-.1-2.1.6-.4,1.5.2,2.1,1.4.6,2.1.2l2.4,1.9h1.7s0,1.9,0,1.9h-4.3c-.3-.8-1.1-1.3-1.9-1.1s-1.4.8-1.3,1.7.6,1.5,1.4,1.6,1.6-.3,1.8-1.2h4.3s0,2,0,2h-1.7c0,0-2.5,2.2-2.5,2.2-.9-.5-1.8-.2-2.3.6-.2,0-.3-.1-.1-.4-.5,0-1.1,0-1.7.3h-.1c.6-.8,2-.8,1.7-1.6s-3.9,1.6-4.3,2.7c-2-1-3.3-2.9-3.4-5-.2-4.1,3.3-5.4,3.4-6s0-.5-.2-.7c-1.2-2.5-.3-5.5,2.2-6.9s5.5-.4,6.8,2.1c-.6.6-.6,1.6,0,2.2s1.6.8,2.2.2.9-1.5.4-2.2Z" fill="#d2e1fb"/><path d="M14.1,38.2c.6,0,1.4-.6,2-.2s-.2.3,0,.5c-.3.8-.2,1.6.4,2.1s1.5.5,2.1,0,.8-1.3.6-2l2.2-2c.5,0,.9,0,1.3,0,0,1,.2,1.9.9,2.4s1.6.8,2.6.7v2.5c-.8.3-1.3,1.1-1.1,1.9s.9,1.4,1.7,1.4,1.5-.7,1.6-1.4-.3-1.6-1.1-1.9v-2.4s2,0,2,0l-1.4,10.8c-1.1,1.3-2.8,1.9-4.6,1.6s-3-1.3-3.6-2.8-.6-2.8.1-4.2c1.3-2.6,3.8-1.9,3.3-3s-.4-.3-.6-.3c-2.8.8-4.7,3.5-4.1,6.5-1.8.3-3.7-.3-5-1.6-2.5-2.6-2-6.9,1-8.8Z" fill="#ebcdf7"/><path d="M54.5,23.4l-2.5-.3c0-.4,0-.8.1-1.2,1.1.2,2.2.2,3.3.4s1.8,1.3,1.7,2.4l-3.8,28.8c-.2,1.4-1.6,2-2.9,1.9l-20-2.7c-1.1-.1-1.9-1.2-1.8-2.3l3.8-28.7c.2-1.2,1-2.1,2.2-2.1s2.3.3,3.4.4l-.2,1.2-2.8-.3c-.9-.1-1.6.7-1.7,1.6l-3.6,27.2c-.1,1,.8,1.7,1.7,1.9l18.5,2.5c1,.1,2.2-.3,2.3-1.4l3.6-26.9c.1-1-.2-2.1-1.3-2.2Z" fill="#dec3f1"/><path d="M25,21.9c-1.2,1.1-.3,1.4-2.1,1.3-.3-.6-1.1-.8-1.7-.8-1.2-2.2-3.6-3.5-6.1-3.1-.3-2.2,1.2-4.2,3.3-4.5s4.2,1,4.5,3.3,0,.6.4.6c1.5.3,0-3.8-2.3-4.6,1-1.8,3.1-2.7,5.1-2.2s3.3,2.2,3.3,4.3v10.1s-2.3,0-2.3,0v-3.1c.9-.3,1.3-1.2,1.1-2.1s-1.1-1.3-1.9-1.1-1.4,1-1.3,1.8Z" fill="#c3effc"/><path d="M25.3,38.8c-1,0-1.6-.7-1.7-1.7v-8.1c0-.8.6-1.7,1.5-1.7h5.7s-1.5,11.4-1.5,11.4h-3.9Z" fill="#b2eed1"/><path d="M39.9,17.9c-.8-.1-1.5.4-1.8,1.1l-3.2-.4c-1.6-.2-3.1.9-3.3,2.6l-.7,5.1c0,.1-.4,0-.4,0v-10c0-2.1,1.4-3.8,3.3-4.3s4.1.4,5.1,2.2c-2.2.6-3.7,4.4-2.5,4.6s.5-.1.6-.5c.1-1.5,1.2-2.9,2.6-3.3s3.2,0,4.3,1.2c-.8.5-1.4,1.2-1.6,2.1l-2.3-.3Z" fill="#faecca"/><path d="M50,24.4l-10.6-1.4c-.6,0-.9-.6-.8-1.2l.3-2.4c.2-1.5,2.6-.3,4-.4,0-1.5,1.2-2.7,2.7-2.5s2.3,1.6,1.9,3.1l3.2.5c.5,0,.7.6.6,1l-.4,2.5c0,.3-.5.7-.9.6Z" fill="#b4edd0"/><path d="M17.4,38.7c.4,0,.7.2.8.5s-.2.7-.6.8-.7-.1-.7-.5.1-.7.6-.8Z" fill="#e1caf3"/><path d="M26.5,43.3c.4-.1.7.2.8.5.1.4,0,.7-.4.8s-.7,0-.8-.4,0-.7.5-.9Z" fill="#b7eccf"/><path d="M26.5,21c.4-.1.7.2.8.5s-.2.7-.4.8-.7-.1-.8-.4,0-.8.4-.9Z" fill="#c7ecce"/><path d="M16.4,32.5c.4-.1.7,0,.8.5s0,.7-.4.8-.7,0-.8-.4,0-.8.4-.9Z" fill="#b0eecf"/><path d="M17.2,26.9c.4-.2.7,0,.9.3s0,.7-.3.9-.7,0-.8-.3,0-.7.3-.9Z" fill="#dfc9f2"/><path d="M21.2,23.5c.4-.2.7,0,.9.4s0,.7-.3.8-.7,0-.9-.3,0-.8.3-.9Z" fill="#b3ebcf"/><path d="M35.8,38.5c-.8-1-.4-2.3.6-3s2.3-.5,3,.5l1.6,2,6.1-5.4c1-.9,2.4-.8,3.2.2s.6,2.4-.4,3.2l-7.7,6.7c-1,.9-2.5.8-3.3-.3l-3.1-4Z" fill="#9ea3d8"/><path d="M44.9,17.9c.6-.2,1.2,0,1.4.6s0,1.2-.6,1.3-1.1,0-1.4-.6,0-1.1.6-1.3Z" fill="#9fa2d9"/><path d="M36.6,38c-.4-.5-.2-1.3.3-1.6s1.3-.3,1.7.2l1.9,2.4c.1.2.3.3.5.2s.3-.1.5-.2l6.3-5.6c.5-.5,1.2-.5,1.7,0s.6,1.2,0,1.7l-7.8,6.9c-.6.5-1.5.5-2-.1l-3-3.9Z" fill="#b5ecce"/></svg>